<svg xmlns="http://www.w3.org/2000/svg" width="483.1972351074219" height="366.9352111816406" viewBox="-298.51849365234375 -112.4826431274414 483.1972351074219 366.9352111816406"><title>Neo4j Graph Visualization</title><desc>Created using Neo4j (http://www.neo4j.com/)</desc><g class="layer relationships"><g class="relationship" transform="translate(-84.34394606638173 38.30981561229508) rotate(193.37379446553115)"><path class="outline" fill="#A5ABB6" stroke="none" d="M 25 0.5 L 59.04771199472964 0.5 L 59.04771199472964 -0.5 L 25 -0.5 Z M 112.46177449472964 0.5 L 146.50948648945928 0.5 L 146.50948648945928 3.5 L 153.50948648945928 0 L 146.50948648945928 -3.5 L 146.50948648945928 -0.5 L 112.46177449472964 -0.5 Z"/><text text-anchor="middle" pointer-events="none" font-size="8px" fill="#000000" x="85.75474324472964" y="3" transform="rotate(180 85.75474324472964 0)" font-family="sans-serif">TAUGHT_BY</text></g><g class="relationship" transform="translate(24.42847142347997 121.4662411221122) rotate(398.5048860236766)"><path class="outline" fill="#A5ABB6" stroke="none" d="M 25 0.5 L 71.01222970783549 0.5 L 71.01222970783549 -0.5 L 25 -0.5 Z M 89.01222970783549 0.5 L 135.02445941567098 0.5 L 135.02445941567098 3.5 L 142.02445941567098 0 L 135.02445941567098 -3.5 L 135.02445941567098 -0.5 L 89.01222970783549 -0.5 Z"/><text text-anchor="middle" pointer-events="none" font-size="8px" fill="#000000" x="80.01222970783549" y="3" font-family="sans-serif">ON</text></g><g class="relationship" transform="translate(24.42847142347997 121.4662411221122) rotate(368.90333725235087)"><path class="outline" fill="#A5ABB6" stroke="none" d="M 25 0.5 L 50.9131171067734 0.5 L 50.9131171067734 -0.5 L 25 -0.5 Z M 68.9131171067734 0.5 L 94.8262342135468 0.5 L 94.8262342135468 3.5 L 101.8262342135468 0 L 94.8262342135468 -3.5 L 94.8262342135468 -0.5 L 68.9131171067734 -0.5 Z"/><text text-anchor="middle" pointer-events="none" font-size="8px" fill="#000000" x="59.9131171067734" y="3" font-family="sans-serif">ON</text></g><g class="relationship" transform="translate(24.54029320788677 -13.88917144185455) rotate(391.60029237882793)"><path class="outline" fill="#A5ABB6" stroke="none" d="M 25 0.5 L 58.96670972067932 0.5 L 58.96670972067932 -0.5 L 25 -0.5 Z M 76.96670972067932 0.5 L 110.93341944135864 0.5 L 110.93341944135864 3.5 L 117.93341944135864 0 L 110.93341944135864 -3.5 L 110.93341944135864 -0.5 L 76.96670972067932 -0.5 Z"/><text text-anchor="middle" pointer-events="none" font-size="8px" fill="#000000" x="67.96670972067932" y="3" font-family="sans-serif">ON</text></g><g class="relationship" transform="translate(24.54029320788677 -13.88917144185455) rotate(361.0883550840996)"><path class="outline" fill="#A5ABB6" stroke="none" d="M 25 0.5 L 53.08104854808673 0.5 L 53.08104854808673 -0.5 L 25 -0.5 Z M 71.08104854808673 0.5 L 99.16209709617345 0.5 L 99.16209709617345 3.5 L 106.16209709617345 0 L 99.16209709617345 -3.5 L 99.16209709617345 -0.5 L 71.08104854808673 -0.5 Z"/><text text-anchor="middle" pointer-events="none" font-size="8px" fill="#000000" x="62.08104854808673" y="3" font-family="sans-serif">ON</text></g><g class="relationship" transform="translate(24.54029320788677 -13.88917144185455) rotate(331.0775378352239)"><path class="outline" fill="#A5ABB6" stroke="none" d="M 25 0.5 L 59.44973885726678 0.5 L 59.44973885726678 -0.5 L 25 -0.5 Z M 77.44973885726678 0.5 L 111.89947771453356 0.5 L 111.89947771453356 3.5 L 118.89947771453356 0 L 111.89947771453356 -3.5 L 111.89947771453356 -0.5 L 77.44973885726678 -0.5 Z"/><text text-anchor="middle" pointer-events="none" font-size="8px" fill="#000000" x="68.44973885726678" y="3" font-family="sans-serif">ON</text></g><g class="relationship" transform="translate(-84.34394606638173 38.30981561229508) rotate(397.3978833018553)"><path class="outline" fill="#A5ABB6" stroke="none" d="M 25 0.5 L 53.73419194038701 0.5 L 53.73419194038701 -0.5 L 25 -0.5 Z M 76.183410690387 0.5 L 104.91760263077401 0.5 L 104.91760263077401 3.5 L 111.91760263077401 0 L 104.91760263077401 -3.5 L 104.91760263077401 -0.5 L 76.183410690387 -0.5 Z"/><text text-anchor="middle" pointer-events="none" font-size="8px" fill="#000000" x="64.958801315387" y="3" font-family="sans-serif">HAS</text></g><g class="relationship" transform="translate(-84.34394606638173 38.30981561229508) rotate(334.3869909592561)"><path class="outline" fill="#A5ABB6" stroke="none" d="M 25 0.5 L 45.650285680427295 0.5 L 45.650285680427295 -0.5 L 25 -0.5 Z M 68.09950443042729 0.5 L 88.74979011085459 0.5 L 88.74979011085459 3.5 L 95.74979011085459 0 L 88.74979011085459 -3.5 L 88.74979011085459 -0.5 L 68.09950443042729 -0.5 Z"/><text text-anchor="middle" pointer-events="none" font-size="8px" fill="#000000" x="56.874895055427295" y="3" font-family="sans-serif">HAS</text></g><g class="relationship" transform="translate(-84.34394606638173 38.30981561229508) rotate(527.5540941630213)"><path class="outline" fill="#A5ABB6" stroke="none" d="M 25 0.5 L 64.46193627628041 0.5 L 64.46193627628041 -0.5 L 25 -0.5 Z M 118.16896752628041 0.5 L 157.63090380256082 0.5 L 157.63090380256082 3.5 L 164.63090380256082 0 L 157.63090380256082 -3.5 L 157.63090380256082 -0.5 L 118.16896752628041 -0.5 Z"/><text text-anchor="middle" pointer-events="none" font-size="8px" fill="#000000" x="91.31545190128041" y="3" transform="rotate(180 91.31545190128041 0)" font-family="sans-serif">TAUGHT_TO</text></g></g><g class="layer nodes"><g class="node" transform="translate(-258.01257154025086,-2.979956641223339)"><circle class="outline" cx="0" cy="0" r="25" fill="#FB95AF" stroke="#E0849B" stroke-width="2px"/><text text-anchor="middle" pointer-events="none" font-family="sans-serif" dy="1.5625" font-size="25" fill="#FFFFFF"/><text text-anchor="middle" pointer-events="none" font-family="sans-serif" dy="1.5625" font-size="25" fill="#FFFFFF"/><text class="caption" text-anchor="middle" pointer-events="none" y="0" font-size="10px" fill="#FFFFFF" font-family="sans-serif"> Ian</text><text class="caption" text-anchor="middle" pointer-events="none" y="10" font-size="10px" fill="#FFFFFF" font-family="sans-serif"> McLoug…</text></g><g class="node" transform="translate(-84.34394606638173,38.30981561229508)"><circle class="outline" cx="0" cy="0" r="25" fill="#FF756E" stroke="#E06760" stroke-width="2px"/><text text-anchor="middle" pointer-events="none" font-family="sans-serif" dy="1.5625" font-size="25" fill="#FFFFFF"/><text text-anchor="middle" pointer-events="none" font-family="sans-serif" dy="1.5625" font-size="25" fill="#FFFFFF"/><text class="caption" text-anchor="middle" pointer-events="none" y="0" font-size="10px" fill="#FFFFFF" font-family="sans-serif"> Graph</text><text class="caption" text-anchor="middle" pointer-events="none" y="10" font-size="10px" fill="#FFFFFF" font-family="sans-serif"> Theory</text></g><g class="node" transform="translate(155.13430856929375,225.45255839082373)"><circle class="outline" cx="0" cy="0" r="25" fill="#DE9BF9" stroke="#BF85D6" stroke-width="2px"/><text text-anchor="middle" pointer-events="none" font-family="sans-serif" dy="1.5625" font-size="25" fill="#FFFFFF"/><text class="caption" text-anchor="middle" pointer-events="none" y="5" font-size="10px" fill="#FFFFFF" font-family="sans-serif"> 0208</text></g><g class="node" transform="translate(149.72655767545564,141.0948749610195)"><circle class="outline" cx="0" cy="0" r="25" fill="#DE9BF9" stroke="#BF85D6" stroke-width="2px"/><text text-anchor="middle" pointer-events="none" font-family="sans-serif" dy="1.5625" font-size="25" fill="#FFFFFF"/><text class="caption" text-anchor="middle" pointer-events="none" y="5" font-size="10px" fill="#FFFFFF" font-family="sans-serif"> 0938</text></g><g class="node" transform="translate(146.28015414599736,61.00654707375127)"><circle class="outline" cx="0" cy="0" r="25" fill="#DE9BF9" stroke="#BF85D6" stroke-width="2px"/><text text-anchor="middle" pointer-events="none" font-family="sans-serif" dy="1.5625" font-size="25" fill="#FFFFFF"/><text class="caption" text-anchor="middle" pointer-events="none" y="5" font-size="10px" fill="#FFFFFF" font-family="sans-serif"> PF05</text></g><g class="node" transform="translate(155.67872776993414,-11.397847440113125)"><circle class="outline" cx="0" cy="0" r="25" fill="#DE9BF9" stroke="#BF85D6" stroke-width="2px"/><text text-anchor="middle" pointer-events="none" font-family="sans-serif" dy="1.5625" font-size="25" fill="#FFFFFF"/><text class="caption" text-anchor="middle" pointer-events="none" y="5" font-size="10px" fill="#FFFFFF" font-family="sans-serif"> 0379</text></g><g class="node" transform="translate(150.49190774639692,-83.48263723899747)"><circle class="outline" cx="0" cy="0" r="25" fill="#DE9BF9" stroke="#BF85D6" stroke-width="2px"/><text text-anchor="middle" pointer-events="none" font-family="sans-serif" dy="1.5625" font-size="25" fill="#FFFFFF"/><text class="caption" text-anchor="middle" pointer-events="none" y="5" font-size="10px" fill="#FFFFFF" font-family="sans-serif"> 0162</text></g><g class="node" transform="translate(24.42847142347997,121.4662411221122)"><circle class="outline" cx="0" cy="0" r="25" fill="#FFD86E" stroke="#EDBA39" stroke-width="2px"/><text text-anchor="middle" pointer-events="none" font-family="sans-serif" dy="1.5625" font-size="25" fill="#604A0E"/><text class="caption" text-anchor="middle" pointer-events="none" y="5" font-size="10px" fill="#604A0E" font-family="sans-serif"> lecture</text></g><g class="node" transform="translate(24.54029320788677,-13.88917144185455)"><circle class="outline" cx="0" cy="0" r="25" fill="#FFD86E" stroke="#EDBA39" stroke-width="2px"/><text text-anchor="middle" pointer-events="none" font-family="sans-serif" dy="1.5625" font-size="25" fill="#604A0E"/><text class="caption" text-anchor="middle" pointer-events="none" y="5" font-size="10px" fill="#604A0E" font-family="sans-serif"> lab</text></g><g class="node" transform="translate(-269.51850793016024,79.17864622357814)"><circle class="outline" cx="0" cy="0" r="25" fill="#A5ABB6" stroke="#9AA1AC" stroke-width="2px"/><text text-anchor="middle" pointer-events="none" font-family="sans-serif" dy="1.5625" font-size="25" fill="#FFFFFF"/><text text-anchor="middle" pointer-events="none" font-family="sans-serif" dy="1.5625" font-size="25" fill="#FFFFFF"/><text class="caption" text-anchor="middle" pointer-events="none" y="0" font-size="10px" fill="#FFFFFF" font-family="sans-serif"> Software</text><text class="caption" text-anchor="middle" pointer-events="none" y="10" font-size="10px" fill="#FFFFFF" font-family="sans-serif"> Develo…</text></g></g></svg>